<svg width="16" height="16" viewBox="0 0 40 40" fill="none" xmlns="http://www.w3.org/2000/svg">
    <g transform="scale(0.08, 0.08) translate(0, 0)">
        <!--      <rect fill="#fff" stroke-width="50" x="2" y="2" width="496" height="496" stroke="#000"/>-->
        <!--      <path fill="#fff" stroke-width="4"  stroke="#545454" d="M22,2 h456 a20,20 0 0 1 20,20 v456 a20,20 0 0 1 -20,20 h-456 a20,20 0 0 1 -20,-20 v-456 a20,20 0 0 1 20,-20 z" />-->

        <g transform="translate(-20, 0)">
            <!-- tree root (border) -->
            <!--      <line fill="none" stroke="#384d49" x1="125" y1="150" x2="275" y2="50" stroke-width="28"/>
                  <line fill="none" stroke="#384d49" x1="275" y1="50" x2="225" y2="150" stroke-width="28"/>
                  <line fill="none" stroke="#384d49" x1="275" y1="50" x2="340" y2="250" stroke-width="28"/>
                  <line fill="none" stroke="#384d49" x1="460" y1="250" x2="275" y2="50" stroke-width="28"/>
                  <ellipse fill="#7ba8a1" stroke="#384d49" stroke-width="8" cx="275" cy="50" rx="25" ry="25"/>-->

            <!-- tree root -->
            <line fill="none" stroke="#888" x1="125" y1="150" x2="275" y2="50" stroke-width="25"/>
            <line fill="none" stroke="#888" x1="275" y1="50" x2="225" y2="150" stroke-width="25"/>
            <line fill="none" stroke="#888" x1="275" y1="50" x2="340" y2="250" stroke-width="25"/>
            <line fill="none" stroke="#888" x1="460" y1="250" x2="275" y2="50" stroke-width="25"/>
            <ellipse fill="#888" stroke="#888" stroke-width="8" cx="275" cy="50" rx="25" ry="25"/>

            <!-- M (border) -->
            <!--      <ellipse fill="#00457c" stroke="#002a4d" stroke-width="8" cx="75" cy="350" rx="25" ry="25"/>
                  <ellipse fill="#00457c" stroke="#002a4d" stroke-width="8" cx="175" cy="350" rx="25" ry="25"/>
                  <ellipse fill="#00457c" stroke="#002a4d" stroke-width="8" cx="275" cy="350" rx="25" ry="25"/>
                  <ellipse fill="#00457c" stroke="#002a4d" stroke-width="8" cx="125" cy="150" rx="25" ry="25"/>
                  <ellipse fill="#00457c" stroke="#002a4d" stroke-width="8" cx="225" cy="150" rx="25" ry="25"/>
                  <line fill="none" stroke="#002a4d" x1="75" y1="350" x2="125" y2="150" stroke-width="28"/>
                  <line fill="none" stroke="#002a4d" stroke-width="28" x1="125" y1="150" x2="175" y2="350"/>
                  <line fill="none" stroke="#002a4d" stroke-width="28" x1="225" y1="150" x2="175" y2="350"/>
                  <line fill="none" stroke="#002a4d" stroke-width="28" x1="275" y1="350" x2="225" y2="150"/>-->

            <!-- M -->
            <ellipse fill="#00457c" stroke="#00457c" stroke-width="8" cx="75" cy="350" rx="25" ry="25"/>
            <ellipse fill="#00457c" stroke="#00457c" stroke-width="8" cx="175" cy="350" rx="25" ry="25"/>
            <ellipse fill="#00457c" stroke="#00457c" stroke-width="8" cx="275" cy="350" rx="25" ry="25"/>
            <ellipse fill="#00457c" stroke="#00457c" stroke-width="8" cx="125" cy="150" rx="25" ry="25"/>
            <ellipse fill="#00457c" stroke="#00457c" stroke-width="8" cx="225" cy="150" rx="25" ry="25"/>
            <line fill="none" stroke="#00457c" x1="75" y1="350" x2="125" y2="150" stroke-width="25"/>
            <line fill="none" stroke="#00457c" stroke-width="25" x1="125" y1="150" x2="175" y2="350"/>
            <line fill="none" stroke="#00457c" stroke-width="25" x1="225" y1="150" x2="175" y2="350"/>
            <line fill="none" stroke="#00457c" stroke-width="25" x1="275" y1="350" x2="225" y2="150"/>

            <!-- X (border) -->
            <!--      <ellipse fill="#545454" stroke="#4d3826" stroke-width="8" cx="340" cy="250" rx="25" ry="25"/>
                  <ellipse fill="#545454" stroke="#4d3826" stroke-width="8" cx="340" cy="450" rx="25" ry="25"/>
                  <ellipse fill="#545454" stroke="#4d3826" stroke-width="8" cx="400" cy="350" rx="25" ry="25"/>
                  <ellipse fill="#545454" stroke="#4d3826" stroke-width="8" cx="460" cy="250" rx="25" ry="25"/>
                  <ellipse fill="#545454" stroke="#4d3826" stroke-width="8" cx="460" cy="450" rx="25" ry="25"/>
                  <line fill="none" stroke="#4d3826" x1="340" y1="250" x2="400" y2="350" stroke-width="28"/>
                  <line fill="none" stroke="#4d3826" x1="460" y1="250" x2="400" y2="350" stroke-width="28"/>
                  <line fill="none" stroke="#4d3826" x1="340" y1="450" x2="400" y2="350" stroke-width="28"/>
                  <line fill="none" stroke="#4d3826" x1="460" y1="450" x2="400" y2="350" stroke-width="28"/>-->

            <!-- X -->
            <ellipse fill="#000" stroke="#000" stroke-width="8" cx="340" cy="250" rx="25" ry="25"/>
            <ellipse fill="#000" stroke="#000" stroke-width="8" cx="340" cy="450" rx="25" ry="25"/>
            <ellipse fill="#000" stroke="#000" stroke-width="8" cx="400" cy="350" rx="25" ry="25"/>
            <ellipse fill="#000" stroke="#000" stroke-width="8" cx="460" cy="250" rx="25" ry="25"/>
            <ellipse fill="#000" stroke="#000" stroke-width="8" cx="460" cy="450" rx="25" ry="25"/>
            <line fill="none" stroke="#000" x1="340" y1="250" x2="400" y2="350" stroke-width="25"/>
            <line fill="none" stroke="#000" x1="460" y1="250" x2="400" y2="350" stroke-width="25"/>
            <line fill="none" stroke="#000" x1="340" y1="450" x2="400" y2="350" stroke-width="25"/>
            <line fill="none" stroke="#000" x1="460" y1="450" x2="400" y2="350" stroke-width="25"/>
        </g>
    </g>
</svg>
